#!OML:ASF E:/inclinewalkrobotboard/Project1/Captureday1/Session1/subject1.ASF
:FULLY-SPECIFIED
:DEGREES
113
root 0 0 0 1.2578341063225458 -3.5896717724925318 1.9001801237005833
lowerback 12.043262845292606 0.8479044992016465 -0.10771734543442801
upperback -4.409447382753032 1.0648584619385466 -0.6024915569204697
thorax -11.573217045709024 0.48701356747669855 -0.8027147099044969
lowerneck -5.9623979890051055 1.7280790562630262 4.699724581778982
upperneck 18.39374496252133 3.286793104873606 -8.468075125133504
head 6.731662098540677 1.2126193822624933 -3.2527179462771407
rclavicle -3.786557329990712E-16 -2.11066005758246E-15
rhumerus 20.787182782795938 14.830344098085122 -47.2937146990027
rradius 72.87323364475338
rwrist 27.419427477407055
rhand -34.55787259629147 -57.65092154768373
rfingers 7.12502000000002
rthumb -7.751367811508294 -87.60668572873487
lclavicle -2.20260857006615E-15 4.2254249183069274E-16
lhumerus 21.890464712588432 -13.061017501289673 44.45231830314655
lradius 70.74009456375292
lwrist -22.50076571660471
lhand -45.095792827674266 -70.83869605543266
lfingers 7.125020000000016
lthumb -17.857375612448827 -41.89546261769409
rfemur -25.6244912646966 -2.370429158566221 16.87802073423541
rtibia 54.51855364676994
rfoot -31.34290695297704 -17.856223440364822
rtoes -19.020513413710944
lfemur -27.982436744274928 2.831606100001437 -18.341605967914376
ltibia 54.78936055273124
lfoot -33.21179522801505 -3.537526856941882
ltoes -20.664530986130096
114
root 0 0 0 1.2581088350664333 -3.5912163443244447 1.89971048531409
lowerback 12.04299984831488 0.848177305034741 -0.10755312978947329
upperback -4.409486684026259 1.065214441016353 -0.6024313976902899
thorax -11.573100088387262 0.4871947952390086 -0.8027765445699215
lowerneck -5.962037560051067 1.7282575078727394 4.699862314245767
upperneck 18.39375182581216 3.2870676658158677 -8.468518663849887
head 6.731584323367779 1.212724742723437 -3.2528582836476776
rclavicle -3.7825787795172734E-16 -2.1119084619710127E-15
rhumerus 20.78909977369039 14.832707384186966 -47.294556954468526
rradius 72.87472043538858
rwrist 27.418380200900717
rhand -34.55797658129645 -57.65156181213256
rfingers 7.12502000000002
rthumb -7.751481375822742 -87.60766905552393
lclavicle -2.2030968379909926E-15 4.2011799194692654E-16
lhumerus 21.890456729524317 -13.059517561678643 44.451393866030244
lradius 70.73949913384376
lwrist -22.50191652108468
lhand -45.09586207105076 -70.84072584611214
lfingers 7.125020000000016
lthumb -17.8574602932698 -41.897663686062415
rfemur -25.617768001411847 -2.37098591922818 16.877695888756953
rtibia 54.51993059356877
rfoot -31.34105662117707 -17.853194149769653
rtoes -19.031320951356125
lfemur -27.985894865006195 2.8314765568088736 -18.34103869382961
ltibia 54.78582366583839
lfoot -33.21460900683543 -3.5346828404906767
ltoes -20.66203402032098
115
root 0 0 0 1.2576591546147284 -3.5911504801781198 1.8995372681252478
lowerback 12.042995470612539 0.8481475791304223 -0.107549094042526
upperback -4.409421469371868 1.0652075811311987 -0.6023679218882249
thorax -11.573035440600869 0.48717995173518847 -0.8027500226553546
lowerneck -5.962180574852428 1.7281675303519053 4.699905101395423
upperneck 18.393727935721337 3.286930824986568 -8.46858794094717
head 6.731607052419976 1.2126557421255444 -3.252918029169688
rclavicle -3.8671169110689276E-16 -2.0993916907350575E-15
rhumerus 20.787612058399894 14.830085702366672 -47.29488263543119
rradius 72.87574479133815
rwrist 27.41823909517897
rhand -34.55930013028081 -57.65171272365813
rfingers 7.12502000000002
rthumb -7.75264736909914 -87.60688803208046
lclavicle -2.236365621038798E-15 4.3034264594373484E-16
lhumerus 21.8908667405043 -13.061552887133635 44.45258366068373
lradius 70.74049578359221
lwrist -22.500256090774606
lhand -45.09546454514543 -70.83666781653058
lfingers 7.125020000000016
lthumb -17.85693186710186 -41.893435366665585
rfemur -25.615281485043674 -2.3757299235776683 16.87899695135596
rtibia 54.52849031424164
rfoot -31.33302339487507 -17.850330006352426
rtoes -19.015372711223698
lfemur -27.99456919278732 2.836304874749469 -18.347134492029582
ltibia 54.796795804795224
lfoot -33.21031698265935 -3.5359489820227457
ltoes -20.6399602382197
116
root 0 0 0 1.258196324959572 -3.5916787247939794 1.8997546720507317
lowerback 12.042910787214362 0.8482626469759813 -0.10765897583374662
upperback -4.409476707756951 1.065303915939681 -0.6024577829369681
thorax -11.57304115490955 0.487242752803915 -0.8027483870359753
lowerneck -5.961947115185019 1.7282880424102751 4.699906348678991
upperneck 18.393726594513684 3.2871149724367257 -8.468638935873992
head 6.731555531171217 1.2127446296325162 -3.2529022541998556
rclavicle -3.765313994511277E-16 -2.111796018418551E-15
rhumerus 20.78993229703009 14.833752782881257 -47.294996331274135
rradius 72.87525572231512
rwrist 27.417901563543715
rhand -34.558047997616 -57.65177858157512
rfingers 7.12502000000002
rthumb -7.751569773784498 -87.60805684900025
lclavicle -2.2009353861448942E-15 4.1766324740497566E-16
lhumerus 21.889894381972233 -13.058092251985117 44.45111696237137
lradius 70.73846954603317
lwrist -22.502649292190632
lhand -45.09578162448698 -70.84161603510742
lfingers 7.125020000000016
lthumb -17.85740662075103 -41.89844113919676
rfemur -25.61668675099343 -2.37103635427348 16.87663044784254
rtibia 54.52131749743782
rfoot -31.337351059240117 -17.853771026077204
rtoes -19.029918879108973
lfemur -27.991090901337884 2.833533914459323 -18.343871220784415
ltibia 54.789403807258424
lfoot -33.2175927262273 -3.5331214048184054
ltoes -20.651301826742788
117
root 0 0 0 1.2582396206749302 -3.5918535262448112 1.8996453302586378
lowerback 12.042865814914485 0.84828943970952 -0.10761471481000395
upperback -4.409500905077964 1.0653446009553527 -0.602437010775532
thorax -11.573039561730921 0.4872625446363149 -0.8027608303654235
lowerneck -5.961889441805185 1.7283184424365279 4.699912797379779
upperneck 18.39374083328654 3.2871582033633304 -8.46867848273487
head 6.731547961007364 1.2127596426293428 -3.25291088364527
rclavicle -3.766072124112799E-16 -2.1120822654892706E-15
rhumerus 20.78977103589208 14.83339669736071 -47.29468060026024
rradius 72.87523422471837
rwrist 27.41820069760329
rhand -34.55811440896409 -57.65193925808732
rfingers 7.12502000000002
rthumb -7.751614204020747 -87.60827233918806
lclavicle -2.2025571738112416E-15 4.1931804352282673E-16
lhumerus 21.89015101296126 -13.0582165607081 44.45090690344594
lradius 70.73871620274696
lwrist -22.50275405206535
lhand -45.09590424181252 -70.84220039248567
lfingers 7.125020000000016
lthumb -17.857509502489467 -41.89913235144647
rfemur -25.615325425681366 -2.371055866584596 16.876898872106622
rtibia 54.52061512362739
rfoot -31.33852263611624 -17.85292254102907
rtoes -19.034060698330585
lfemur -27.989199475391274 2.8320611402775144 -18.34196721623641
ltibia 54.784974018034006
lfoot -33.218342221274774 -3.532392058551381
ltoes -20.657497714340415
118
root 0 0 0 1.2581824402746422 -3.591816507613043 1.8996066290603029
lowerback 12.04279189285682 0.8483013675974431 -0.10760605977791105
upperback -4.409497940433253 1.0653595149670343 -0.6024238001747549
thorax -11.572995791573184 0.4872700919509034 -0.8027519050817618
lowerneck -5.961833506883341 1.7283527022884446 4.699974604151164
upperneck 18.39380244906502 3.2872099300812216 -8.468766509686729
head 6.731556970529667 1.2127789144092236 -3.252941458644341
rclavicle -3.77792843970132E-16 -2.1124801249752163E-15
rhumerus 20.789206106552108 14.83260808640678 -47.29413755449071
rradius 72.87480951816784
rwrist 27.418791088995498
rhand -34.558152229695494 -57.65215641546328
rfingers 7.12502000000002
rthumb -7.751659400216878 -87.60841921666763
lclavicle -2.2030952333482995E-15 4.191182858025315E-16
lhumerus 21.89004987549513 -13.057909872728974 44.45077232144408
lradius 70.73856976142145
lwrist -22.50293385293142
lhand -45.0959261273837 -70.84257598316105
lfingers 7.125020000000016
lthumb -17.85753389930548 -41.8995340148614
rfemur -25.613804001317078 -2.371278616853707 16.876730114000917
rtibia 54.52161135794512
rfoot -31.33729353790883 -17.851607514492795
rtoes -19.036155677435204
lfemur -27.98737720656876 2.831970387326575 -18.34217414910245
ltibia 54.785450005278406
lfoot -33.21661281145034 -3.5342109528733454
ltoes -20.65914499854931
119
root 0 0 0 1.2581396365484179 -3.591775246999612 1.8996056396155372
lowerback 12.042770526515362 0.8483040215349966 -0.10760994838390114
upperback -4.409497058795184 1.0653617750603903 -0.6024227280947044
thorax -11.572984053682017 0.48727109573059413 -0.8027488802431266
lowerneck -5.961813469395952 1.7283636982441875 4.700004803813306
upperneck 18.393821555095432 3.2872254477594147 -8.468803599096503
head 6.731559087424632 1.212784559098913 -3.252956447922659
rclavicle -3.77986672799028E-16 -2.1127059383643004E-15
rhumerus 20.788841103856434 14.832066823227075 -47.29375598680525
rradius 72.87452951889563
rwrist 27.41920574271606
rhand -34.558163139561145 -57.65226799585331
rfingers 7.12502000000002
rthumb -7.751674145591213 -87.60851468637733
lclavicle -2.203197003176267E-15 4.189486140676853E-16
lhumerus 21.88997978573662 -13.057643623581207 44.4506468465559
lradius 70.7384349095767
lwrist -22.50311759970102
lhand -45.09590861410015 -70.84281987055375
lfingers 7.125020000000016
lthumb -17.857518167469102 -41.89979106531975
rfemur -25.61320961702668 -2.371414539281883 16.876627004147778
rtibia 54.52224683599745
rfoot -31.33640892446053 -17.851138626932435
rtoes -19.036440531826823
lfemur -27.986770028443726 2.8321304681202784 -18.342573376433055
ltibia 54.78648318950132
lfoot -33.21583713371229 -3.5352006423781233
ltoes -20.659152796415142
120
root 0 0 0 1.2576400137014292 -3.591163172670885 1.8995607648795039
lowerback 12.042965056572402 0.8481584754146818 -0.10758099903171403
upperback -4.409417062032704 1.0652161436180037 -0.6023739674167142
thorax -11.573015451912745 0.487184693403742 -0.8027384866023861
lowerneck -5.96216200693101 1.728176507776949 4.699931785038965
upperneck 18.393739633664197 3.286943524194827 -8.468625261844503
head 6.731606674834316 1.212660581543965 -3.2529330897125854
rclavicle -3.8681263439618485E-16 -2.0996143724835738E-15
rhumerus 20.78729894036372 14.829604693448653 -47.294528548237636
rradius 72.87550268102851
rwrist 27.418622847222345
rhand -34.55932982763797 -57.65184416200452
rfingers 7.12502000000002
rthumb -7.752682177616025 -87.60702316743641
lclavicle -2.236403399434569E-15 4.3009150073492854E-16
lhumerus 21.890719006370865 -13.06111181951498 44.452434848452825
lradius 70.7402239166475
lwrist -22.5005252747686
lhand -45.095459436461915 -70.83709915314148
lfingers 7.125020000000016
lthumb -17.856930197745246 -41.893863538793795
rfemur -25.61468320169236 -2.375819391859938 16.878707853027258
rtibia 54.529093094862915
rfoot -31.331712016682314 -17.850019979792375
rtoes -19.015582151237712
lfemur -27.994581344997854 2.836662308395529 -18.34782020826835
ltibia 54.79783731407568
lfoot -33.21028075610567 -3.536488821286701
ltoes -20.638851770983596
